# Blender 4.1.0
# www.blender.org
mtllib untitled.mtl
o Plane
v -35.608784 0.000000 8.569448
v 35.608784 0.000000 8.569448
v -35.608784 0.000000 -8.569448
v 35.608784 0.000000 -8.569448
v -35.608784 19.485163 8.569448
v 35.608784 19.485163 8.569448
v -35.608784 19.485163 -8.569448
v 35.608784 19.485163 -8.569448
vn -0.0000 1.0000 -0.0000
vn -0.0000 -1.0000 -0.0000
vt 0.962706 0.917479
vt 0.505925 0.099007
vt 0.964413 0.100714
vt 0.045730 0.914066
vt 0.505925 0.099008
vt 0.504218 0.915772
vt 0.504218 0.915772
vt 0.047437 0.097301
s 0
usemtl Material.002
f 2/1/1 3/2/1 1/3/1
f 7/4/2 6/5/2 5/6/2
f 2/1/1 4/7/1 3/2/1
f 7/4/2 8/8/2 6/5/2
o Plane.001
v -35.608780 0.000001 8.569447
v 35.608780 0.000001 8.569447
v -35.608780 0.000001 -8.569447
v 35.608780 0.000001 -8.569447
v -35.608780 19.485159 8.569447
v 35.608780 19.485159 8.569447
v -35.608780 19.485159 -8.569447
v 35.608780 19.485159 -8.569447
v 23.739187 0.000001 -8.569447
v 11.869594 0.000001 -8.569447
v 0.000000 0.000001 -8.569447
v -11.869594 0.000001 -8.569447
v -23.739187 0.000001 -8.569447
v 23.739187 19.485159 -8.569447
v 11.869594 19.485159 -8.569447
v 0.000000 19.485159 -8.569447
v -11.869594 19.485159 -8.569447
v -23.739187 19.485159 -8.569447
vn -0.0000 -0.0000 1.0000
vn -0.0000 -0.0000 -1.0000
vn 1.0000 -0.0000 -0.0000
vn -1.0000 -0.0000 -0.0000
vt 0.499060 0.497012
vt 0.416039 0.913477
vt 0.417474 0.496512
vt 0.500495 0.080047
vt 0.009548 0.494011
vt 0.010983 0.077045
vt 0.987136 0.916979
vt 0.988571 0.500013
vt 0.990006 0.083048
vt 0.091133 0.494511
vt 0.008113 0.910976
vt 0.009548 0.494011
vt 0.172719 0.495011
vt 0.089698 0.911476
vt 0.254304 0.495512
vt 0.171283 0.911977
vt 0.335889 0.496012
vt 0.252869 0.912477
vt 0.334454 0.912977
vt 0.497624 0.913978
s 0
usemtl Material.001
f 12/9/3 22/10/3 17/11/3
f 9/12/4 14/13/4 10/14/4
f 15/15/5 9/9/5 11/16/5
f 10/17/6 16/9/6 12/12/6
f 21/18/3 15/19/3 11/20/3
f 20/21/3 26/22/3 21/18/3
f 19/23/3 25/24/3 20/21/3
f 18/25/3 24/26/3 19/23/3
f 17/11/3 23/27/3 18/25/3
f 12/9/3 16/28/3 22/10/3
f 9/12/4 13/9/4 14/13/4
f 15/15/5 13/28/5 9/9/5
f 10/17/6 14/16/6 16/9/6
f 21/18/3 26/22/3 15/19/3
f 20/21/3 25/24/3 26/22/3
f 19/23/3 24/26/3 25/24/3
f 18/25/3 23/27/3 24/26/3
f 17/11/3 22/10/3 23/27/3
